<!DOCTYPE svg PUBLIC "-//W3C//DTD SVG 1.1//EN" "http://www.w3.org/Graphics/SVG/1.1/DTD/svg11.dtd">
<!-- Uploaded to: SVG Repo, www.svgrepo.com, Transformed by: SVG Repo Mixer Tools -->
<svg fill="#259c5c" height="192px" width="192px" version="1.1" id="Capa_1" xmlns="http://www.w3.org/2000/svg" xmlns:xlink="http://www.w3.org/1999/xlink" viewBox="-45 -45 539.98 539.98" xml:space="preserve" transform="matrix(-1, 0, 0, -1, 0, 0)rotate(90)">
<g id="SVGRepo_bgCarrier" stroke-width="0"/>
<g id="SVGRepo_tracerCarrier" stroke-linecap="round" stroke-linejoin="round"/>
<g id="SVGRepo_iconCarrier"> <path d="M382.514,211.695c3.033,3.816,7.704,6.274,12.947,6.274h36.488c9.122,0,16.543-7.421,16.543-16.543 c0-9.121-7.421-16.542-16.543-16.542h-36.488c-5.239,0-9.908,2.455-12.942,6.268h-21.258v-29.629h31.919c2.209,0,4-1.791,4-4V144.98 c0-2.209-1.791-4-4-4h-31.919v-26.584h21.255c3.033,3.814,7.703,6.271,12.944,6.271h36.488c9.122,0,16.543-7.421,16.543-16.543 s-7.421-16.543-16.543-16.543h-36.488c-5.241,0-9.911,2.457-12.944,6.271h-21.255V64.225h31.919c2.209,0,4-1.791,4-4V47.683 c0-2.209-1.791-4-4-4h-31.919v-18.46C361.262,11.314,349.947,0,336.039,0H113.944c-13.908,0-25.223,11.314-25.223,25.223v18.46 H67.468c-3.033-3.814-7.703-6.271-12.944-6.271H18.035c-9.122,0-16.543,7.421-16.543,16.543c0,9.121,7.421,16.542,16.543,16.542 h36.488c5.241,0,9.911-2.457,12.945-6.271h21.254v29.629H56.804c-2.209,0-4,1.791-4,4v12.543c0,2.209,1.791,4,4,4h31.918v26.584 H67.465c-3.033-3.812-7.702-6.268-12.941-6.268H18.035c-9.122,0-16.543,7.421-16.543,16.543s7.421,16.543,16.543,16.543h36.488 c5.243,0,9.914-2.459,12.947-6.275h21.251v29.629H56.804c-2.209,0-4,1.791-4,4v12.543c0,2.209,1.791,4,4,4h31.918v26.595H67.471 c-3.033-3.817-7.705-6.275-12.947-6.275H18.035c-9.122,0-16.543,7.421-16.543,16.543s7.421,16.543,16.543,16.543h36.488 c5.239,0,9.908-2.455,12.941-6.268h21.257v29.629H56.804c-2.209,0-4,1.791-4,4v12.543c0,2.209,1.791,4,4,4h31.918v26.584H67.468 c-3.033-3.814-7.703-6.271-12.944-6.271H18.035c-9.122,0-16.543,7.421-16.543,16.543s7.421,16.543,16.543,16.543h36.488 c5.241,0,9.911-2.457,12.944-6.271h21.254v29.628H56.804c-2.209,0-4,1.791-4,4v12.543c0,2.209,1.791,4,4,4h31.918v18.459 c0,13.908,11.314,25.223,25.223,25.223h222.095c13.908,0,25.223-11.314,25.223-25.223v-18.459h21.255 c3.033,3.814,7.703,6.271,12.944,6.271h36.488c9.122,0,16.543-7.421,16.543-16.543s-7.421-16.543-16.543-16.543h-36.488 c-5.241,0-9.911,2.457-12.944,6.271h-21.255v-29.628h31.919c2.209,0,4-1.791,4-4v-12.543c0-2.209-1.791-4-4-4h-31.919v-26.584 h21.258c3.033,3.812,7.702,6.268,12.941,6.268h36.488c9.122,0,16.543-7.421,16.543-16.543s-7.421-16.543-16.543-16.543h-36.488 c-5.243,0-9.914,2.459-12.947,6.275h-21.252v-29.629h31.919c2.209,0,4-1.791,4-4V242.29c0-2.209-1.791-4-4-4h-31.919v-26.595 H382.514z M395.461,192.885h36.488c4.711,0,8.543,3.832,8.543,8.542c0,4.711-3.832,8.543-8.543,8.543h-36.488 c-4.711,0-8.543-3.832-8.543-8.543C386.918,196.717,390.75,192.885,395.461,192.885z M379.093,199.152 c-0.103,0.746-0.175,1.501-0.175,2.274c0,0.771,0.072,1.525,0.174,2.269h-17.831v-4.543H379.093z M330.108,199.152h23.153v4.543 h-23.152c0.09-0.745,0.15-1.499,0.15-2.269C330.26,200.656,330.199,199.9,330.108,199.152z M353.262,191.152h-26.074 c-3.294-5.032-8.926-8.39-15.343-8.528c-2.485-5.102-5.386-9.947-8.705-14.498c2.507,1.238,5.317,1.953,8.297,1.953 c6.591,0,12.392-3.412,15.756-8.556h26.07V191.152z M313.638,224.992c0,1.606-0.047,3.231-0.136,4.861 c-0.679-0.075-1.367-0.119-2.065-0.119c-6.591,0-12.392,3.412-15.756,8.556h-54.933c-3.364-5.144-9.165-8.556-15.756-8.556 s-12.392,3.412-15.756,8.556h-54.933c-3.364-5.144-9.165-8.556-15.756-8.556c-0.699,0-1.386,0.045-2.065,0.119 c-0.09-1.633-0.137-3.258-0.137-4.862c0-1.603,0.047-3.228,0.137-4.861c0.679,0.075,1.367,0.119,2.065,0.119 c6.591,0,12.392-3.412,15.755-8.556h54.933c3.364,5.144,9.165,8.556,15.755,8.556s12.392-3.412,15.755-8.556h54.933 c3.364,5.144,9.165,8.556,15.755,8.556c0.698,0,1.386-0.045,2.065-0.119C313.591,221.762,313.638,223.386,313.638,224.992z M292.765,301.005h-49.101c0.091-0.748,0.151-1.504,0.151-2.275c0-0.769-0.06-1.523-0.15-2.268h49.098 c-0.09,0.745-0.15,1.499-0.15,2.268C292.613,299.501,292.674,300.257,292.765,301.005z M157.221,296.462h49.098 c-0.09,0.745-0.15,1.499-0.15,2.268c0,0.771,0.061,1.528,0.151,2.275H157.22c0.091-0.748,0.151-1.504,0.151-2.275 C157.371,297.961,157.311,297.207,157.221,296.462z M209.241,309.005c0.908,1.387,1.998,2.638,3.229,3.739 c-5.374-0.764-10.656-2.015-15.78-3.739H209.241z M224.992,309.553c-5.968,0-10.823-4.855-10.823-10.823s4.855-10.823,10.823-10.823 s10.823,4.855,10.823,10.823S230.96,309.553,224.992,309.553z M240.743,309.005h12.551c-5.124,1.724-10.406,2.975-15.78,3.739 C238.745,311.643,239.835,310.391,240.743,309.005z M286.833,288.462h-46.085c-3.364-5.144-9.165-8.556-15.756-8.556 s-12.392,3.412-15.756,8.556h-46.085c-6.866-6.671-12.548-14.292-16.912-22.742c3.299-1.485,6.094-3.886,8.059-6.886h54.942 c3.364,5.139,9.163,8.548,15.751,8.548s12.387-3.408,15.751-8.548h54.942c1.964,3,4.76,5.402,8.059,6.886 C299.38,274.169,293.699,281.791,286.833,288.462z M138.548,237.734c5.968,0,10.823,4.855,10.823,10.823 s-4.855,10.823-10.823,10.823s-10.823-4.855-10.823-10.823S132.58,237.734,138.548,237.734z M157.221,246.29h49.098 c-0.09,0.745-0.15,1.499-0.15,2.268c0,0.771,0.061,1.528,0.151,2.275H157.22c0.091-0.748,0.151-1.504,0.151-2.275 C157.371,247.789,157.311,247.035,157.221,246.29z M214.169,248.558c0-5.968,4.855-10.823,10.823-10.823s10.823,4.855,10.823,10.823 s-4.855,10.823-10.823,10.823S214.169,254.525,214.169,248.558z M243.665,246.29h49.098c-0.09,0.745-0.15,1.499-0.15,2.268 c0,0.771,0.061,1.528,0.151,2.275h-49.101c0.091-0.748,0.151-1.504,0.151-2.275C243.815,247.789,243.755,247.035,243.665,246.29z M311.437,259.381c-5.968,0-10.823-4.855-10.823-10.823s4.855-10.823,10.823-10.823s10.823,4.855,10.823,10.823 S317.404,259.381,311.437,259.381z M157.22,148.98h49.101c-0.091,0.748-0.151,1.504-0.151,2.275c0,0.769,0.06,1.523,0.15,2.268 h-49.098c0.09-0.745,0.15-1.499,0.15-2.268C157.371,150.484,157.31,149.728,157.22,148.98z M292.764,153.523h-49.098 c0.09-0.745,0.15-1.499,0.15-2.268c0-0.771-0.061-1.528-0.151-2.275h49.101c-0.091,0.748-0.151,1.504-0.151,2.275 C292.613,152.025,292.674,152.779,292.764,153.523z M240.743,140.98c-0.908-1.387-1.998-2.638-3.229-3.739 c5.374,0.764,10.658,2.015,15.782,3.739H240.743z M224.992,140.433c5.968,0,10.823,4.855,10.823,10.823s-4.855,10.823-10.823,10.823 s-10.823-4.855-10.823-10.823S219.024,140.433,224.992,140.433z M209.241,140.98h-12.553c5.124-1.724,10.407-2.975,15.782-3.739 C211.239,138.343,210.149,139.594,209.241,140.98z M163.152,161.523h46.085c3.364,5.144,9.165,8.556,15.756,8.556 s12.392-3.412,15.756-8.556h46.085c6.866,6.671,12.547,14.292,16.911,22.742c-3.299,1.485-6.095,3.886-8.059,6.887h-54.941 c-3.364-5.14-9.163-8.549-15.751-8.549s-12.387,3.409-15.751,8.549h-54.941c-1.964-3.001-4.76-5.402-8.059-6.887 C150.604,175.815,156.286,168.194,163.152,161.523z M292.764,203.695h-49.099c0.09-0.745,0.15-1.499,0.15-2.269 c0-0.771-0.061-1.527-0.151-2.274h49.101c-0.091,0.747-0.151,1.503-0.151,2.274C292.613,202.196,292.674,202.95,292.764,203.695z M235.815,201.427c0,5.969-4.855,10.824-10.823,10.824s-10.823-4.855-10.823-10.824c0-5.968,4.855-10.823,10.823-10.823 S235.815,195.459,235.815,201.427z M206.319,203.695h-49.099c0.09-0.745,0.15-1.499,0.15-2.269c0-0.771-0.061-1.527-0.151-2.274 h49.101c-0.091,0.747-0.151,1.503-0.151,2.274C206.169,202.196,206.229,202.95,206.319,203.695z M138.548,190.604 c5.968,0,10.823,4.855,10.823,10.823c0,5.969-4.855,10.824-10.823,10.824s-10.823-4.855-10.823-10.824 C127.725,195.459,132.58,190.604,138.548,190.604z M311.437,212.251c-5.968,0-10.823-4.855-10.823-10.824 c0-5.968,4.855-10.823,10.823-10.823s10.823,4.855,10.823,10.823C322.26,207.396,317.404,212.251,311.437,212.251z M300.613,151.256 c0-5.968,4.855-10.823,10.823-10.823s10.823,4.855,10.823,10.823s-4.855,10.823-10.823,10.823S300.613,157.224,300.613,151.256z M330.108,148.98h23.153v4.543h-23.152c0.09-0.745,0.15-1.499,0.15-2.268C330.26,150.484,330.199,149.728,330.108,148.98z M389.181,148.98v4.543h-27.919v-4.543H389.181z M395.461,95.582h36.488c4.711,0,8.543,3.832,8.543,8.543s-3.832,8.543-8.543,8.543 h-36.488c-4.711,0-8.543-3.832-8.543-8.543S390.75,95.582,395.461,95.582z M379.093,101.854c-0.103,0.745-0.175,1.499-0.175,2.271 s0.072,1.527,0.175,2.271h-17.831v-4.543H379.093z M330.109,101.854h23.153v4.543h-23.153c0.09-0.746,0.151-1.501,0.151-2.271 S330.199,102.6,330.109,101.854z M353.262,93.854H327.19c-3.364-5.141-9.164-8.552-15.753-8.552s-12.389,3.41-15.753,8.552h-54.938 c-1.231-1.881-2.793-3.52-4.597-4.854c20.165-2.321,39.025-10.903,54.136-24.775h5.398c3.364,5.142,9.164,8.553,15.754,8.553 s12.39-3.411,15.754-8.553h26.071V93.854z M322.26,104.125c0,5.968-4.855,10.823-10.823,10.823s-10.823-4.855-10.823-10.823 s4.855-10.823,10.823-10.823S322.26,98.157,322.26,104.125z M292.764,106.396h-49.1c0.09-0.746,0.151-1.501,0.151-2.271 s-0.061-1.525-0.151-2.271h49.1c-0.09,0.746-0.151,1.501-0.151,2.271S292.674,105.65,292.764,106.396z M224.992,93.302 c5.968,0,10.823,4.855,10.823,10.823s-4.855,10.823-10.823,10.823s-10.823-4.855-10.823-10.823S219.024,93.302,224.992,93.302z M149.371,53.954c0,5.968-4.855,10.823-10.823,10.823s-10.823-4.855-10.823-10.823c0-5.969,4.855-10.824,10.823-10.824 S149.371,47.985,149.371,53.954z M148.698,38.126c-5.553-9.329-9.275-19.44-11.084-30.126h26.081v13.741c0,2.209,1.791,4,4,4 h117.446c2.209,0,4-1.791,4-4V8h23.23c-1.81,10.686-5.531,20.797-11.084,30.126c-2.236,1.439-4.148,3.332-5.604,5.557h-54.937 c-3.364-5.142-9.164-8.553-15.754-8.553s-12.39,3.411-15.754,8.553h-54.937C152.846,41.458,150.934,39.565,148.698,38.126z M171.694,8h109.446v9.741H171.694V8z M311.437,43.13c5.968,0,10.823,4.855,10.823,10.824c0,5.968-4.855,10.823-10.823,10.823 s-10.823-4.855-10.823-10.823C300.613,47.985,305.469,43.13,311.437,43.13z M292.764,56.225h-49.099 c0.09-0.746,0.151-1.501,0.151-2.271c0-0.77-0.061-1.525-0.151-2.271h49.1c-0.09,0.746-0.151,1.501-0.151,2.271 C292.613,54.724,292.674,55.479,292.764,56.225z M235.815,53.954c0,5.968-4.855,10.823-10.823,10.823s-10.823-4.855-10.823-10.823 c0-5.969,4.855-10.824,10.823-10.824S235.815,47.985,235.815,53.954z M157.22,51.683h49.1c-0.09,0.746-0.151,1.501-0.151,2.271 c0,0.77,0.06,1.525,0.151,2.271H157.22c0.09-0.746,0.151-1.501,0.151-2.271C157.371,53.184,157.311,52.429,157.22,51.683z M209.238,64.225c3.364,5.142,9.164,8.553,15.754,8.553s12.39-3.411,15.754-8.553h37.002 c-15.199,11.296-33.569,17.439-52.756,17.439c-19.188,0-37.557-6.144-52.756-17.439H209.238z M330.109,51.683h23.153v4.542h-23.153 c0.09-0.746,0.151-1.501,0.151-2.271C330.26,53.184,330.199,52.429,330.109,51.683z M389.181,51.683v4.542h-27.919v-4.542H389.181z M353.262,25.223v18.46H327.19c-3.271-5-8.85-8.344-15.215-8.525c4.177-8.566,7.023-17.658,8.496-27.157h15.568 C345.536,8,353.262,15.726,353.262,25.223z M96.722,25.223C96.722,15.726,104.447,8,113.944,8h15.569 c1.473,9.499,4.319,18.591,8.496,27.157c-6.365,0.181-11.944,3.525-15.215,8.525H96.722V25.223z M119.875,56.225H96.722v-4.542 h23.154c-0.09,0.746-0.151,1.501-0.151,2.271C119.725,54.724,119.785,55.479,119.875,56.225z M54.523,62.496H18.035 c-4.711,0-8.543-3.832-8.543-8.542c0-4.711,3.832-8.543,8.543-8.543h36.488c4.711,0,8.543,3.832,8.543,8.543 C63.066,58.664,59.234,62.496,54.523,62.496z M70.892,56.225c0.103-0.744,0.175-1.498,0.175-2.271c0-0.772-0.072-1.527-0.175-2.271 h17.83v4.542H70.892z M96.722,64.225h26.072c3.364,5.142,9.164,8.553,15.754,8.553s12.39-3.411,15.754-8.553h5.398 c15.111,13.872,33.97,22.453,54.136,24.775c-1.804,1.334-3.366,2.973-4.597,4.854h-54.938c-3.364-5.141-9.164-8.552-15.753-8.552 s-12.389,3.41-15.753,8.552H96.722V64.225z M206.32,106.396h-49.1c0.09-0.746,0.151-1.501,0.151-2.271s-0.061-1.525-0.151-2.271 h49.1c-0.09,0.746-0.151,1.501-0.151,2.271S206.229,105.65,206.32,106.396z M149.371,104.125c0,5.968-4.855,10.823-10.823,10.823 s-10.823-4.855-10.823-10.823s4.855-10.823,10.823-10.823S149.371,98.157,149.371,104.125z M119.875,106.396H96.722v-4.543h23.154 c-0.09,0.746-0.151,1.501-0.151,2.271S119.785,105.65,119.875,106.396z M60.804,106.396v-4.543h27.918v4.543H60.804z M96.722,114.396h26.073c3.364,5.141,9.164,8.552,15.753,8.552s12.389-3.41,15.753-8.552h54.938 c3.364,5.141,9.164,8.552,15.753,8.552s12.389-3.41,15.753-8.552h54.938c3.364,5.141,9.164,8.552,15.753,8.552 s12.389-3.41,15.753-8.552h26.072v26.584h-26.074c-3.364-5.139-9.163-8.548-15.751-8.548s-12.387,3.408-15.751,8.548h-22.939 c-14.473-8.262-30.956-12.634-47.754-12.634s-33.281,4.372-47.754,12.634h-22.939c-3.364-5.139-9.163-8.548-15.751-8.548 s-12.387,3.408-15.751,8.548H96.722V114.396z M149.371,151.256c0,5.968-4.855,10.823-10.823,10.823s-10.823-4.855-10.823-10.823 s4.855-10.823,10.823-10.823S149.371,145.288,149.371,151.256z M119.875,153.523H96.722v-4.543h23.154 c-0.091,0.748-0.151,1.504-0.151,2.275C119.725,152.025,119.785,152.779,119.875,153.523z M54.523,159.799H18.035 c-4.711,0-8.543-3.832-8.543-8.543s3.832-8.543,8.543-8.543h36.488c4.711,0,8.543,3.832,8.543,8.543S59.234,159.799,54.523,159.799z M70.892,153.523c0.103-0.743,0.174-1.496,0.174-2.268c0-0.774-0.072-1.53-0.175-2.275h17.831v4.543H70.892z M96.722,161.523h26.071 c3.364,5.144,9.165,8.556,15.756,8.556c2.98,0,5.79-0.715,8.297-1.953c-3.319,4.551-6.219,9.396-8.705,14.498 c-6.418,0.139-12.049,3.496-15.343,8.528H96.722V161.523z M119.875,203.695H96.722v-4.543h23.154 c-0.091,0.747-0.151,1.503-0.151,2.274C119.725,202.196,119.785,202.95,119.875,203.695z M60.804,203.695v-4.543h27.918v4.543 H60.804z M96.722,211.695h26.071c1.508,2.307,3.511,4.253,5.853,5.71c-0.198,2.547-0.3,5.088-0.3,7.587s0.102,5.041,0.3,7.588 c-2.342,1.457-4.345,3.404-5.853,5.71H96.722V211.695z M119.876,250.833H96.722v-4.543h23.153c-0.09,0.745-0.15,1.499-0.15,2.268 C119.725,249.329,119.785,250.085,119.876,250.833z M54.523,257.101H18.035c-4.711,0-8.543-3.832-8.543-8.543 s3.832-8.543,8.543-8.543h36.488c4.711,0,8.543,3.832,8.543,8.543S59.234,257.101,54.523,257.101z M70.891,250.833 c0.103-0.746,0.175-1.501,0.175-2.275c0-0.771-0.072-1.524-0.174-2.268h17.829v4.543H70.891z M96.722,258.833h26.075 c3.294,5.032,8.925,8.388,15.342,8.527c2.485,5.102,5.386,9.947,8.705,14.499c-2.507-1.238-5.317-1.953-8.297-1.953 c-6.591,0-12.392,3.412-15.756,8.556H96.722V258.833z M149.371,298.729c0,5.968-4.855,10.823-10.823,10.823 s-10.823-4.855-10.823-10.823s4.855-10.823,10.823-10.823S149.371,292.762,149.371,298.729z M119.876,301.005H96.722v-4.543h23.153 c-0.09,0.745-0.15,1.499-0.15,2.268C119.725,299.501,119.785,300.257,119.876,301.005z M60.804,301.005v-4.543h27.918v4.543H60.804z M54.523,354.403H18.035c-4.711,0-8.543-3.832-8.543-8.543s3.832-8.543,8.543-8.543h36.488c4.711,0,8.543,3.832,8.543,8.543 S59.234,354.403,54.523,354.403z M70.892,348.132c0.103-0.745,0.175-1.499,0.175-2.271s-0.072-1.527-0.175-2.271h17.83v4.543H70.892 z M119.875,348.132H96.722v-4.543h23.154c-0.09,0.746-0.151,1.501-0.151,2.271S119.785,347.386,119.875,348.132z M96.722,356.132 h26.073c3.364,5.141,9.164,8.552,15.753,8.552s12.389-3.41,15.753-8.552h54.938c1.231,1.881,2.793,3.52,4.597,4.854 c-20.166,2.321-39.025,10.903-54.136,24.774h-5.399c-3.364-5.141-9.164-8.552-15.753-8.552s-12.389,3.41-15.753,8.552H96.722 V356.132z M127.725,345.86c0-5.968,4.855-10.823,10.823-10.823s10.823,4.855,10.823,10.823s-4.855,10.823-10.823,10.823 S127.725,351.828,127.725,345.86z M157.22,343.589h49.1c-0.09,0.746-0.151,1.501-0.151,2.271s0.061,1.525,0.151,2.271h-49.1 c0.09-0.746,0.151-1.501,0.151-2.271S157.311,344.335,157.22,343.589z M224.992,356.684c-5.968,0-10.823-4.855-10.823-10.823 s4.855-10.823,10.823-10.823s10.823,4.855,10.823,10.823S230.96,356.684,224.992,356.684z M300.613,396.031 c0-5.968,4.855-10.823,10.823-10.823s10.823,4.855,10.823,10.823s-4.855,10.823-10.823,10.823S300.613,401.999,300.613,396.031z M301.286,411.858c5.554,9.33,9.275,19.44,11.085,30.126h-23.23v-13.742c0-2.209-1.791-4-4-4H167.694c-2.209,0-4,1.791-4,4v13.742 h-26.081c1.81-10.687,5.532-20.797,11.085-30.126c2.235-1.439,4.147-3.331,5.602-5.555h54.938c3.364,5.142,9.164,8.552,15.753,8.552 s12.389-3.41,15.753-8.552h54.938C297.138,408.527,299.05,410.419,301.286,411.858z M281.141,441.984H171.694v-9.742h109.446 V441.984z M138.548,406.854c-5.968,0-10.823-4.855-10.823-10.823s4.855-10.823,10.823-10.823s10.823,4.855,10.823,10.823 S144.516,406.854,138.548,406.854z M157.22,393.76h49.1c-0.09,0.746-0.151,1.501-0.151,2.271s0.061,1.525,0.151,2.271h-49.1 c0.09-0.746,0.151-1.501,0.151-2.271S157.311,394.506,157.22,393.76z M214.169,396.031c0-5.968,4.855-10.823,10.823-10.823 s10.823,4.855,10.823,10.823s-4.855,10.823-10.823,10.823S214.169,401.999,214.169,396.031z M292.764,398.303h-49.1 c0.09-0.746,0.151-1.501,0.151-2.271s-0.061-1.525-0.151-2.271h49.1c-0.09,0.746-0.151,1.501-0.151,2.271 S292.674,397.557,292.764,398.303z M240.745,385.76c-3.364-5.141-9.164-8.552-15.753-8.552s-12.389,3.41-15.753,8.552h-37.003 c15.199-11.295,33.568-17.438,52.756-17.438c19.187,0,37.556,6.143,52.756,17.438H240.745z M119.875,398.303H96.722v-4.543h23.154 c-0.09,0.746-0.151,1.501-0.151,2.271S119.785,397.557,119.875,398.303z M60.804,398.303v-4.543h27.918v4.543H60.804z M96.722,424.762v-18.459h26.073c3.271,5,8.85,8.343,15.215,8.524c-4.177,8.566-7.023,17.658-8.496,27.157h-15.569 C104.447,441.984,96.722,434.259,96.722,424.762z M353.262,424.762c0,9.497-7.726,17.223-17.223,17.223h-15.568 c-1.473-9.499-4.319-18.591-8.496-27.157c6.365-0.181,11.944-3.525,15.215-8.524h26.072V424.762z M330.109,393.76h23.153v4.543 h-23.153c0.09-0.746,0.151-1.501,0.151-2.271S330.199,394.506,330.109,393.76z M395.461,387.488h36.488 c4.711,0,8.543,3.832,8.543,8.543s-3.832,8.543-8.543,8.543h-36.488c-4.711,0-8.543-3.832-8.543-8.543 S390.75,387.488,395.461,387.488z M379.093,393.76c-0.103,0.745-0.175,1.499-0.175,2.271s0.072,1.527,0.175,2.271h-17.831v-4.543 H379.093z M353.262,385.76H327.19c-3.364-5.141-9.164-8.552-15.753-8.552s-12.389,3.41-15.753,8.552h-5.399 c-15.112-13.871-33.971-22.452-54.136-24.774c1.804-1.334,3.366-2.973,4.597-4.854h54.938c3.364,5.141,9.164,8.552,15.753,8.552 s12.389-3.41,15.753-8.552h26.072V385.76z M243.665,343.589h49.1c-0.09,0.746-0.151,1.501-0.151,2.271s0.061,1.525,0.151,2.271 h-49.1c0.09-0.746,0.151-1.501,0.151-2.271S243.755,344.335,243.665,343.589z M300.613,345.86c0-5.968,4.855-10.823,10.823-10.823 s10.823,4.855,10.823,10.823s-4.855,10.823-10.823,10.823S300.613,351.828,300.613,345.86z M330.109,343.589h23.153v4.543h-23.153 c0.09-0.746,0.151-1.501,0.151-2.271S330.199,344.335,330.109,343.589z M389.181,343.589v4.543h-27.919v-4.543H389.181z M353.262,335.589H327.19c-3.364-5.141-9.164-8.552-15.753-8.552s-12.389,3.41-15.753,8.552h-54.938 c-3.364-5.141-9.164-8.552-15.753-8.552s-12.389,3.41-15.753,8.552h-54.938c-3.364-5.141-9.164-8.552-15.753-8.552 s-12.389,3.41-15.753,8.552H96.722v-26.584h26.075c3.364,5.139,9.163,8.548,15.751,8.548s12.387-3.408,15.751-8.548h22.939 c14.475,8.262,30.958,12.634,47.754,12.634s33.279-4.372,47.754-12.634h22.939c3.364,5.139,9.163,8.548,15.751,8.548 s12.387-3.408,15.751-8.548h26.074V335.589z M300.613,298.729c0-5.968,4.855-10.823,10.823-10.823s10.823,4.855,10.823,10.823 s-4.855,10.823-10.823,10.823S300.613,304.697,300.613,298.729z M330.109,296.462h23.152v4.543h-23.153 c0.091-0.748,0.151-1.504,0.151-2.275C330.26,297.961,330.199,297.207,330.109,296.462z M395.461,290.187h36.488 c4.711,0,8.543,3.832,8.543,8.543s-3.832,8.543-8.543,8.543h-36.488c-4.711,0-8.543-3.832-8.543-8.543 S390.75,290.187,395.461,290.187z M379.092,296.462c-0.103,0.743-0.174,1.496-0.174,2.268c0,0.774,0.072,1.53,0.175,2.275h-17.832 v-4.543H379.092z M353.262,288.462h-26.07c-3.364-5.144-9.165-8.556-15.756-8.556c-2.98,0-5.79,0.715-8.297,1.953 c3.319-4.552,6.22-9.397,8.705-14.499c6.417-0.139,12.048-3.495,15.342-8.527h26.074V288.462z M330.109,246.29h23.152v4.543h-23.153 c0.091-0.748,0.151-1.504,0.151-2.275C330.26,247.789,330.199,247.035,330.109,246.29z M389.181,246.29v4.543h-27.919v-4.543 H389.181z M353.262,238.29h-26.07c-1.509-2.307-3.511-4.254-5.854-5.711c0.198-2.542,0.3-5.084,0.3-7.587s-0.102-5.045-0.3-7.586 c2.343-1.457,4.345-3.404,5.854-5.711h26.07V238.29z"/> </g>
</svg>