<svg viewBox="0 0 70.00000000000001 69.99999406602699" xmlns="http://www.w3.org/2000/svg">
    <g transform="translate(-3.8888885592237217, -3.8888885592237217) scale(0.7777777118447443)" fill="#0ea47a">
        <g>
            <path d="M50,95C25.2,95,5,74.8,5,50S25.2,5,50,5s45,20.2,45,45S74.8,95,50,95z M50,7.5C26.6,7.5,7.5,26.6,7.5,50S26.6,92.5,50,92.5   S92.5,73.4,92.5,50S73.4,7.5,50,7.5z"></path>
            <rect x="35.6" y="44.2" transform="matrix(0.6551 0.7555 -0.7555 0.6551 53.1162 -9.3618)" width="2.5" height="18.7"></rect>
            <path d="M12.4,53.4c-1.9-9-0.1-18.5,0-18.9l2.5,0.5c0,0.1-1.8,9.4,0,17.9L12.4,53.4z"></path>
            <path d="M42.2,28.5c-0.1,0-7.7-3.6-14.2-5.3l0.6-2.4c6.7,1.8,14.3,5.3,14.6,5.5L42.2,28.5z"></path>
            <path d="M58.2,93c-3-3.4-5.7-9.2-5.7-9.2s8.4-5.4,15.3-12.8c0,0,6.8,2.1,14,2.1c0,0-0.8,6.6-4.8,11.3"></path>
            <path d="M57.2,93.8c-3-3.5-5.7-9.3-5.9-9.5l-0.5-1l0.9-0.6c0.1-0.1,8.3-5.4,15-12.6l0.5-0.6l0.8,0.2c0.1,0,6.7,2.1,13.6,2.1h1.4   L83,73.3c0,0.3-0.8,7-5,12L76,83.6c2.6-3.1,3.8-7.2,4.2-9.3c-5.4-0.2-10.3-1.4-12.1-1.9c-5.5,5.8-11.7,10.2-14,11.8   c0.9,1.8,2.9,5.6,5,8L57.2,93.8z"></path>
            <path d="M43.9,47.4l20.3,6.5c6.8-8.5,10.4-16.8,10.4-16.8c-5.4-8.4-12.6-15.8-12.6-15.8c-10.3,2.1-19.1,6-19.1,6L43.9,47.4z"></path>
            <path d="M64.6,55.3l-21.9-7l-1.2-21.7l0.8-0.3c0.4-0.2,9.1-4,19.4-6.1l0.7-0.1l0.5,0.5c0.3,0.3,7.4,7.6,12.8,16l0.4,0.6l-0.3,0.6   c-0.2,0.3-3.8,8.5-10.5,17L64.6,55.3z M45.1,46.4l18.6,6c5.2-6.7,8.5-13.2,9.4-15.2c-4.4-6.7-10-12.8-11.6-14.5   c-8,1.7-15.1,4.5-17.4,5.4L45.1,46.4z"></path>
            <path d="M9.9,67.5c0.8-8.6,3.7-14.4,3.7-14.4s5.3,2.6,16.1,6.5c1.1,9.5,4.8,18.5,4.8,18.5s-7.1,3.3-14.4,3.8"></path>
            <path d="M20.2,83.2L20,80.7c5.4-0.3,10.7-2.3,12.9-3.2c-1-2.6-3.3-9.5-4.3-16.9c-7.6-2.7-12.3-4.8-14.4-5.7   c-0.8,2-2.5,6.7-3.1,12.8l-2.5-0.2c0.8-8.7,3.7-14.6,3.9-14.9l0.6-1.1l1.1,0.6c0.1,0,5.3,2.6,16,6.4l0.7,0.3l0.1,0.8   c1.1,9.2,4.6,18.1,4.7,18.2l0.4,1.1L35,79.3C34.7,79.4,27.7,82.7,20.2,83.2z"></path>
            <path d="M52.4,85c-9.5-1-18.1-5.6-18.5-5.8l1.2-2.2c0.1,0,8.5,4.5,17.5,5.5L52.4,85z"></path>
            <path d="M66.5,71.1c0-0.1-0.8-8.6-3.6-16.8l2.4-0.8C68.2,62,69,70.5,69,70.9L66.5,71.1z"></path>
            <path d="M30.9,10.6C28.4,16.2,28.4,22,28.4,22s-8,4.8-14.8,12.8L10.1,32l8-11.9L30.9,10.6z"></path>
            <path d="M12.9,35.7L9.3,33l-0.3-1.7l8-11.9l0.3-0.3l12.8-9.5l1.9,1.5c-2.4,5.3-2.4,10.8-2.4,10.9L29,23.1c-0.1,0-7.9,4.8-14.4,12.5   L12.9,35.7z M11.8,31.7l1.7,1.3c5.6-6.3,11.8-10.5,13.7-11.7c0.1-1.3,0.3-4,1.2-7.2L19,21L11.8,31.7z"></path>
            <path d="M71.7,12c-2.2-0.5-7.6,0-7.6,0s-3-4.3-9.7-5.5l10.7,2.5L71.7,12z"></path>
            <path d="M63.5,13.3l-0.4-0.6c0,0-2.3-3.2-7.3-4.6l-1.7-0.4l0.5-2.4c0.6,0.1,1.2,0.3,1.8,0.4l9.2,2.1l6.6,3.1l-0.8,2.3   C71,13.1,70.3,13,68.8,13c-2.1,0-4.5,0.2-4.5,0.2L63.5,13.3z M64,10c0.3,0.3,0.5,0.5,0.7,0.7c0.3,0,0.7-0.1,1.1-0.1l-1-0.5L64,10z"></path>
            <rect x="61.8" y="11.9" transform="matrix(0.9724 0.2332 -0.2332 0.9724 5.6298 -14.2339)" width="2.5" height="9.6"></rect>
            <path d="M93,58.1h-1.9c-0.3-10.6-3.5-17.6-3.5-17.6s1.9-6.1,1.5-10.1L93,42.3l0.8,8.9L93,58.1z"></path>
            <path d="M93,59.4h-1.9l-1.2-1.2c-0.2-10.2-3.4-17.1-3.4-17.1l-0.1-0.9c0-0.1,1.8-5.9,1.5-9.6l2.4-0.5l3.9,12.2l0.8,8.9l0,0.2   l-0.8,6.9L93,59.4z M89,40.4c0.6,1.5,2.5,6.5,3.2,13.9l0.3-3.1l-0.7-8.7l-1.9-5.9C89.5,38.3,89.2,39.7,89,40.4z"></path>
            <path d="M82.6,74l-1.7-1.8c5.9-5.6,9-14.4,9-14.5l2.4,0.8C92.2,58.9,89,68,82.6,74z"></path>
            <path d="M87.1,41.6c-0.1,0-5.7-2.6-12.7-3.3l0.3-2.5c7.5,0.8,13.3,3.4,13.5,3.5L87.1,41.6z"></path>
        </g>
    </g>
</svg>